<?xml version="1.0" standalone="no"?><!DOCTYPE svg PUBLIC "-//W3C//DTD SVG 1.1//EN" "http://www.w3.org/Graphics/SVG/1.1/DTD/svg11.dtd"><svg t="1595311120952" class="icon" viewBox="0 0 1024 1024" version="1.1" xmlns="http://www.w3.org/2000/svg" p-id="3609" xmlns:xlink="http://www.w3.org/1999/xlink" width="200" height="200"><defs><style type="text/css"></style></defs><path d="M57.15392 401.088l349.056 179.584c33.472 17.28 54.592 52.48 54.592 90.88v311.808c0 22.4-17.664 40.64-39.488 40.64a38.592 38.592 0 0 1-17.664-4.288L54.59392 840.128A101.952 101.952 0 0 1 0.00192 749.248V437.376c0-22.4 17.664-40.64 39.488-40.64 6.144 0 12.16 1.472 17.664 4.288z m927.36-4.288c21.76 0 39.488 18.176 39.488 40.64v311.744c0 38.528-21.12 73.728-54.592 90.88l-349.056 179.648a38.592 38.592 0 0 1-17.664 4.288 40.064 40.064 0 0 1-39.488-40.64v-311.744c0-38.528 21.12-73.728 54.592-90.88l349.056-179.648a38.592 38.592 0 0 1 17.664-4.288zM556.35392 10.624l413.696 209.408a40.384 40.384 0 0 1 0 71.936L556.35392 501.376c-27.904 14.144-60.8 14.144-88.704 0L53.95392 291.968a40.384 40.384 0 0 1 0-71.936L467.64992 10.624c27.904-14.144 60.8-14.144 88.704 0z" p-id="3610"></path></svg>